<svg id="Camada_1" data-name="Camada 1" xmlns="http://www.w3.org/2000/svg" viewBox="0 0 223.82 57.528"  width="223.82" height="57.53"><title>Logo Remyntima</title><polygon points="60.975 20.633 60.975 17.919 46.33 17.919 46.33 45.767 60.867 45.767 60.867 43.032 48.871 43.032 48.871 32.091 60.867 32.091 60.867 29.356 48.871 29.356 48.871 20.633 60.975 20.633" style="fill:#211915"/><polygon points="89.405 17.919 88.995 17.919 78.7 40.77 68.298 17.919 67.889 17.919 64.227 45.767 66.682 45.767 69.202 25.694 78.356 45.767 79.002 45.767 88.048 25.845 90.568 45.767 93.066 45.767 89.405 17.919" style="fill:#211915"/><polygon points="112.019 17.919 105.579 29.399 99.032 17.919 96.081 17.919 104.33 32.457 104.33 45.767 106.85 45.767 106.85 32.457 114.97 17.919 112.019 17.919" style="fill:#211915"/><polygon points="139.285 17.919 136.765 17.919 136.765 39.263 119.751 17.919 119.191 17.919 119.191 45.767 121.84 45.767 121.84 24.682 138.725 45.767 139.307 45.767 139.307 17.919 139.285 17.919" style="fill:#211915"/><polygon points="142.968 17.919 142.968 20.654 148.676 20.654 148.676 45.767 151.282 45.767 151.282 20.633 156.989 20.633 156.989 17.919 142.968 17.919" style="fill:#211915"/><rect x="160.306" y="17.919" width="2.563" height="27.848" style="fill:#211915"/><polygon points="192.741 17.919 192.332 17.919 182.037 40.77 171.635 17.919 171.225 17.919 167.564 45.767 170.041 45.767 172.561 25.694 181.714 45.767 182.36 45.767 191.406 25.845 193.926 45.767 196.424 45.767 192.741 17.919" style="fill:#211915"/><path d="M211.888,17.919h-.624L199.181,45.767h2.843l3.985-9.153h11.027l4.027,9.153h2.757ZM207.193,33.9l4.372-10.08,4.351,10.08Z" style="fill:#211915"/><path d="M84.559,26.663" style="fill:#fff"/><path d="M102.155,21.968s6.633-7.387,10.381-10.984C116.628,7.043,125.049,0,138.639,0s20.913,10.984,20.913,10.984-5.061-4.458-20.784-4.458C118.631,6.526,102.155,21.968,102.155,21.968Z" style="fill:#e04f8b"/><circle cx="161.598" cy="14.107" r="2.025" style="fill:#e04f8b"/><path d="M.67,22.507s-1.508-.8,0-4.329S13.657,9.692,28.583,9.52c0,0,10.855-.453,13.245,4.673s2.025,8.206-4.76,11.738-23.152,8.4-22.614,15.723S28.41,52.875,55.268,48.287c0,0,15.636-3.187,20.309-5.3a.267.267,0,0,1,.345-.043c.237.107.129.409-.431.667S52.532,57.4,34.505,57.527,12.71,44.647,12.71,44.647s-6.483-13.482,10.4-21.968l10.08-4.588s5.707-2,4.846-3.941S30.93,11.2,25.266,11.673,8.6,13.375.67,22.507Z" style="fill:#e04f8b"/><path d="M14,17.23a2.7,2.7,0,0,1,2.283,3.791c-1.056,3.424-4.459,7.559-9.24,14.193S4.5,44.561,6.076,44.087c0,0-3.145,2.176-4.5-4.07s6.978-13.5,10.445-17.144C13.054,21.8,16.156,17.962,14,17.23Z" style="fill:#211915"/><path d="M221.839,17.919h0a1.95,1.95,0,1,0-.022,3.9,1.944,1.944,0,0,0,1.981-1.959,1.908,1.908,0,0,0-1.959-1.939Zm.021,3.489h0a1.551,1.551,0,0,1-.043-3.1h.022a1.552,1.552,0,0,1,.021,3.1Zm-.043-2.541a5.907,5.907,0,0,0-.754.064V20.87h.453v-.776h.215c.258,0,.366.087.409.3a1.5,1.5,0,0,0,.151.474h.474a1.432,1.432,0,0,1-.151-.474c-.065-.258-.151-.409-.345-.474V19.9a.481.481,0,0,0,.216-.862c-.13-.129-.3-.172-.668-.172Zm-.28.9v-.56a.686.686,0,0,1,.237-.021c.28,0,.409.129.409.3,0,.194-.194.28-.452.28Z" style="fill:#211915"/></svg>